<svg xmlns="http://www.w3.org/2000/svg" width="64" height="64" viewBox="0 0 64 64"><rect width="64" height="64" rx="13" fill="#0e1c14"/><svg x="10" y="10" width="44" height="44" viewBox="10 10 587 766" preserveAspectRatio="xMidYMid meet"><path d="M212 153h61v61h-61zM272 153h61v61h-61zM333 153h61v61h-61zM151 214h61v61h-61zM91 274h61v61h-61zM151 274h61v61h-61zM212 214h61v61h-61zM272 214h61v61h-61zM212 274h61v61h-61zM272 274h61v61h-61zM333 214h61v61h-61zM395 214h61v61h-61zM333 274h61v61h-61zM395 274h61v61h-61zM30 397h61v61h-61zM91 335h61v61h-61zM151 335h61v61h-61zM91 397h61v61h-61zM151 397h61v61h-61zM212 335h61v61h-61zM272 335h61v61h-61zM212 397h61v61h-61zM272 397h61v61h-61zM333 335h61v61h-61zM395 335h61v61h-61zM333 397h61v61h-61zM395 397h61v61h-61zM454 274h61v61h-61zM454 335h61v61h-61zM454 397h61v61h-61zM515 397h61v61h-61z" fill="#ffc933"/><path d="M30 456h61v61h-61zM30 517h61v61h-61zM91 456h61v61h-61zM151 456h61v61h-61zM91 517h61v61h-61zM151 517h61v61h-61zM212 456h61v61h-61zM272 456h61v61h-61zM212 517h61v61h-61zM272 517h61v61h-61zM333 456h61v61h-61zM395 456h61v61h-61zM333 517h61v61h-61zM395 517h61v61h-61zM454 456h61v61h-61zM515 456h61v61h-61zM454 517h61v61h-61zM515 517h61v61h-61zM91 579h61v61h-61zM151 579h61v61h-61zM151 638h61v61h-61zM91 638h61v61h-61zM212 579h61v61h-61zM272 579h61v61h-61zM212 638h61v61h-61zM272 638h61v61h-61zM333 579h61v61h-61zM395 579h61v61h-61zM333 638h61v61h-61zM395 638h61v61h-61zM454 579h61v61h-61zM454 638h61v61h-61zM212 700h61v61h-61zM272 700h61v61h-61zM333 700h61v61h-61z" fill="#f5a300"/><path d="M272 93h61v61h-61zM333 30h61v61h-61z" fill="#3aa648"/></svg></svg>